<?xml version="1.0" encoding="utf-8"?>
<svg viewBox="0 0 1024 1024" xmlns="http://www.w3.org/2000/svg">
  <defs>
    <linearGradient gradientUnits="userSpaceOnUse" x1="795.51" y1="182.23" x2="795.51" y2="289.69" id="gradient-3">
      <stop offset="0" style="stop-color: rgb(241, 206, 30);"/>
      <stop offset="1" style="stop-color: rgb(241, 146, 30);"/>
    </linearGradient>
    <linearGradient gradientUnits="userSpaceOnUse" x1="738.024" y1="285.402" x2="738.024" y2="505.46" id="gradient-2" gradientTransform="matrix(0.999341, -0.036294, 0.022624, 0.622938, -10.949155, 217.375677)">
      <stop offset="0" style="stop-color: rgba(241, 146, 30, 1)"/>
      <stop offset="1" style="stop-color: rgb(154, 55, 28);"/>
    </linearGradient>
    <linearGradient gradientUnits="userSpaceOnUse" x1="901.25" y1="238.968" x2="901.25" y2="477.08" id="gradient-1" gradientTransform="matrix(0.99719, -0.074908, 0.033105, 0.440701, -13.261609, 334.340961)">
      <stop offset="0" style="stop-color: rgba(241, 146, 30, 1)"/>
      <stop offset="1" style="stop-color: rgb(154, 55, 28);"/>
    </linearGradient>
  </defs>
  <path d="M 785.48 182.23 C 788.791 194.406 797.334 214.498 810.05 203.67 C 808.221 217.487 828.67 239.722 841.66 224.34 C 840.474 228.643 837.762 286.2 841.92 286.61 C 816.91 277.768 761.125 286.428 758.66 289.69 C 758.13 282.15 758.159 253.523 749.1 241.31 C 752.116 243.537 784.153 251.239 774.009 212.081 C 787.373 210.972 786.288 189.799 785.48 182.23 Z" style="fill: url(#gradient-3);"/>
  <path d="M 723.436 328.227 C 725.14 289.088 791.57 287.943 803.093 287.207 C 809.015 286.829 888.41 288.891 889.188 330.07 C 890.007 373.403 807.997 367.874 807.889 367.676 C 807.348 369.279 725.513 361.256 723.436 328.227 Z M 834.731 298.766 C 851.956 303.954 848.445 301.559 882.898 327.944 C 876.957 304.917 844.966 294.887 840.083 293.595 C 818.362 288.995 768.416 284.65 761 303.44 C 777.414 296.592 796.972 291.778 834.731 298.766 Z" style="fill: rgb(94, 41, 25);"/>
  <path d="M 82.667 305.693 C 90.287 305.733 112.3 305.82 115.93 305.63 C 135.28 305.62 154.731 305.391 174.09 305.62 C 204.867 305.984 210.2 330.683 210.17 332.583 C 212.15 362.834 182.44 368.33 177.12 371.02 C 218.053 379.734 213.54 405.975 213.47 411.03 C 212.727 465.015 175.839 459.67 164.935 459.486 C 121.901 458.758 112.007 448.253 108.435 444.061 C 88.645 466.435 66.205 463.479 66.205 463.479 C 42.946 462.501 35.886 448.061 36.844 440.544 C 39.636 418.63 64.008 418.772 68.34 419.064 C 81.619 419.959 86.574 422.732 92.127 426.139 C 92.207 423.529 108.282 313.55 108.781 310.602 C 107.081 310.62 88.624 310.668 82.695 310.693 C 82.632 309.513 82.706 307.85 82.667 305.693 Z M 41.818 440.795 C 41.279 449.441 57.637 457.237 65.388 456.499 C 92.548 453.913 90.566 435.833 91.381 431.391 C 88.143 429.57 80.621 423.607 67.4 423.163 C 48.872 422.541 42.083 436.555 41.818 440.795 Z M 133.464 311.008 C 133.491 311.016 133.519 311.023 133.548 311.031 C 133.524 310.913 133.495 310.904 133.464 311.008 Z M 133.548 311.031 C 134.266 314.462 131.881 409.887 114.23 440.214 C 114.307 440.379 123.335 448.321 144.17 452.33 C 167.522 454.446 189.595 441.06 193.969 414.02 C 198.529 385.83 169.243 376.008 163.817 374.59 C 156.85 374.583 149.533 374.607 142.463 374.427 C 142.483 372.787 142.44 371.23 142.47 369.6 C 147.727 369.83 191.213 374.024 188.779 338.894 C 186.249 302.381 140.259 312.756 133.548 311.031 Z" fill="#2a201d"/>
  <path d="M 244.38 315.41 C 255.95 315.39 267.55 315.27 279.1 315.47 C 280.46 317.53 246.32 457.324 245.31 460.254 C 238.935 478.497 251.441 484.81 258.988 485.597 C 264.366 485.6 269.488 485.678 275 485.59 C 284.093 485.444 293.225 476.281 289.44 465.11 C 306.522 465.954 306.546 475.001 306.665 477.44 C 306.091 490.223 289.201 492.85 281.967 493.512 C 275.614 494.093 267.482 493.825 261.006 493.693 C 227.174 493.372 229.65 460.6 229.64 458.03 C 229.72 447.33 247.18 320.38 244.38 315.41 Z" fill="#2a201d"/>
  <path d="M 550.27 315.37 C 556.62 315.76 579.416 318.042 581.726 318.472 C 584.866 319.782 565.83 398.29 566.53 403.6 C 571.77 399.64 576.16 394.46 580.89 389.9 C 585.15 385.79 591.659 377.491 596.689 374.681 C 602.969 370.891 605.95 369.34 612.96 367.29 C 615.71 366.47 633.13 365.29 639.21 365.39 C 640.83 369.43 641.664 373.274 641.451 377.737 C 640.928 382.044 640.557 385.66 637.34 388.6 C 633.76 386.68 630.001 385.203 626.21 383.73 C 623.591 382.713 621.081 382.107 618.08 381.55 C 613.706 380.738 608.37 379.961 602.05 381.75 C 597.423 383.33 593.806 384.835 590.28 386.99 C 603.52 412.73 616.27 438.79 629.34 464.63 C 631.25 468.35 633.71 471.68 635.87 475.25 C 638.52 479.07 642.18 482.25 645.38 485.62 C 648.64 489.16 653.23 492.41 658.01 493.29 C 663.59 494.14 668.03 491.5 672.31 488.31 C 676.86 484.65 679.01 479.69 680.9 474.32 C 684.37 474.36 687.097 474.554 690.863 475.343 C 692.973 475.953 694.668 477.844 695.377 480.25 C 695.517 483.59 695.849 485.943 694.313 489.01 C 690.588 493.291 685.155 495.907 680.02 497.81 C 676.223 499.217 672.588 500.206 668.09 500.37 C 664.031 500.518 659.519 500.496 655.55 499.5 C 650.388 498.204 646.34 496.76 642.23 493.82 C 638.34 490.94 634.22 488.69 630.95 485.04 C 626.67 480.46 622.502 475.946 618.55 471.31 C 615.933 468.24 613.99 466.094 611.72 463.35 C 607.312 458.02 603.962 452.139 600.07 446.93 C 595.06 440.19 590.539 432.648 585.86 426.08 C 583.068 422.161 579.863 418.661 577.14 414 C 574.906 410.177 574.61 409.44 572.71 407.77 C 572.02 407.36 571.19 407.32 570.22 407.64 C 567.44 409.91 564.743 413.62 563.58 416.58 C 562.388 419.613 561.534 422.016 560.87 425.18 C 560.014 429.26 559.25 434.054 558.47 437.817 C 557.193 443.977 556.148 449.807 554.41 455.32 C 546.46 455.12 538.22 456 530.38 454.55 C 530.82 452.06 551.6 318.22 550.27 315.37 Z" fill="#2a201d"/>
  <path d="M 324.92 367.42 C 356.689 359.892 364.23 376.21 368.9 377.15 C 369.88 374.94 372.874 366.528 379.12 367.6 C 385.5 367.18 391.99 367.51 398.4 367.52 C 398.41 371.53 383.617 438.059 384.49 442.48 C 387.6 458.22 401.293 445.953 403.936 441.61 C 405.731 438.942 410.952 427.237 410.952 427.237 C 411.327 427.114 412.454 426.742 412.823 426.57 C 413.004 428.428 404.846 444.847 402.05 447.9 C 402.05 447.9 393.53 459.074 379.11 457.36 C 374.601 456.281 362.303 454.542 362.15 430.79 C 349.524 462.593 327.21 460.048 313.738 458.39 C 271.999 453.253 279.961 416.242 280.482 412.26 C 285.53 373.664 322.52 368.16 324.92 367.42 Z M 302.89 407.61 C 302.74 411.949 299.238 447.9 328.99 452.69 C 338.449 453.318 349.018 448.005 363.883 420.784 C 364.593 417.804 365.36 389.31 365.3 382.93 C 359.91 372.559 350.289 369.995 345.329 369.511 C 341.959 368.841 311.06 370.008 302.89 407.61 Z" fill="#2a201d"/>
  <path d="M 726.003 368.78 C 724.846 438.132 823.543 466.759 852.79 417.604 C 824.753 441.654 744.473 442.331 726.003 368.78 Z" fill="#2a201d"/>
  <path d="M 896.257 370.109 C 905.37 365.047 922.985 376.976 910.127 403.285 C 898.757 421.535 873.27 427.837 870.413 421.908 C 880.985 411.531 896.154 375.981 896.257 370.109 Z" style="fill: rgb(241, 146, 30);"/>
  <path d="M 732.976 298.926 C 706.838 308.78 713.381 390.652 737.267 414.007 C 737.267 414.78 757.673 445.825 819.285 448.676 C 819.375 452.636 815.46 465.89 814.98 469.15 C 810.22 465.76 805.19 462.85 800.63 459.19 C 798.37 465.699 791.852 480.382 789.633 484.977 C 787.336 489.734 772.76 480.2 754.15 505.46 C 756.501 498.243 768.009 473.349 755.36 462.36 C 743.387 451.959 720.292 474.548 715.78 474.14 C 725.682 459.931 692.222 445.11 656.761 441.253 C 656.911 440.503 676.936 430.869 677.376 429.359 C 677.724 425.601 678.176 422.287 678.334 418.624 C 689.557 429.68 707.594 393.568 702.057 390.246 C 698.28 381.937 663.978 359.267 663.431 358.776 C 664.995 357.374 679.513 352.897 683.659 351.376 C 684.108 351.211 668.023 332.051 668.023 332.051 C 685.691 332.5 658.184 291.957 658.184 291.957 C 660.785 295.331 706.512 300.919 705.395 285.402 C 708.269 287.596 706.454 294.403 732.976 298.926 Z" style="paint-order: fill; fill: url(#gradient-2);"/>
  <path d="M 862.94 429.1 C 897.229 446.194 921.882 409.361 924.303 398.999 C 929.817 356.566 901.992 351.237 895.58 355.182 C 895.385 351.877 896.781 327.498 894.198 321.424 C 891.013 311.798 877.186 300.969 877.757 302.034 C 876.89 300.616 860.382 292.51 855.333 291.342 C 858.306 285.644 874.361 268.019 878.783 266.82 C 883.966 261.951 884.083 256.279 884.952 250.909 C 898.269 269.204 898.656 265.483 908.004 248.729 C 908.368 257.567 929.334 249.615 935.76 232.597 C 935.268 232.633 934.841 271.959 944.571 271.274 C 940.939 273.736 951.786 302.931 958.977 301.588 C 950.191 308.237 913.793 351.555 915.441 350.901 C 913.258 365.596 936.608 368.618 938.936 364.311 C 940.474 369.693 966.477 382.455 972.239 382.946 C 965.174 382.835 946.352 400.716 948.378 403.557 C 939.396 400.119 926.3 426.919 934.283 435.725 C 919.127 424.488 885.137 438.381 887.439 450.663 C 887.349 454.393 890.85 473.39 891.79 477.08 C 886.934 474.423 869.386 463.403 865.624 462.333 C 862.782 461.525 857.939 464.468 856.379 463.088 C 851.543 458.1 849.473 447.193 847.045 447.209 C 844.655 449.059 836.972 463.313 834.182 465.613 C 833.092 459.723 832.55 451.38 830.26 445.88 C 836.3 445.55 841.26 442.18 846.72 439.55 C 852.48 436.68 857.28 432.02 862.94 429.1 Z" style="fill: url(#gradient-1);"/>
  <path d="M 820.929 447.914 C 822.017 445.415 826.384 446.185 826.381 447.062 C 826.319 463.398 832.371 503.978 839.782 521.058 C 839.995 523.433 834.777 526.234 832.772 521.772 C 827.836 511.667 822.374 454.522 820.929 447.914 Z" fill="#9a371c"/>
  <path d="M 505.266 477.893 C 505.336 481.653 504.133 488.465 503.284 492.47 C 499.004 495.46 494.334 496.25 488.92 498.046 C 486.11 502.026 462.38 670.07 462.37 677.13 C 464.682 690.851 518.401 689.953 509.328 667.774 C 521.434 662.776 530.013 674.385 526.19 680.86 C 525.889 692.282 461.169 700.361 452.16 675.91 C 446.463 658.615 454.851 521.56 455.573 520.847 C 451.981 522.63 376.945 615.66 398.086 615.66 C 398.086 615.66 379.236 649.745 378.41 651.69 C 376.4 651.68 374.39 651.67 372.38 651.67 C 376.266 647.875 351.629 525.121 333.61 524.304 C 331.22 544.683 321.459 581.469 317.796 597.573 C 309.993 621.93 299.935 666.008 277.48 644.334 C 291.604 656.825 344.427 518.046 321.265 516.544 C 323.036 516.898 319.265 485.834 315.044 482.258 C 347.486 468.959 385.816 592.109 385.843 608.019 C 380.1 598.113 461.914 488.343 505.266 477.893 Z" fill="#2a201d"/>
  <path d="M 658.198 558.955 C 669.557 558.183 676.685 573.078 675.436 580.435 C 676.588 580.4 692.812 558.744 708.531 558.31 C 732.27 557.654 753.984 573.134 756.667 596.135 C 756.586 646.15 713.25 649.103 713.25 649.103 C 690.551 649.982 673.453 645.386 670.17 640.21 C 670.7 639.38 673.676 638.418 674.206 637.588 C 700.34 656.187 735.232 621.972 733.998 605.161 C 733.841 569.953 723.84 563.978 709.114 562.896 C 698.096 561.561 681.712 580.52 679.532 583.536 C 666.855 595.067 654.35 681.33 654.28 684.79 C 648.456 684.76 633.2 684.337 630.6 684.03 C 632.284 674.317 649.436 562.031 644.1 566.43 C 642.525 567.76 635.338 582.178 635.338 582.178 C 634.533 584.247 632.345 582.991 632.823 581.761 C 632.823 581.761 641.774 564.156 644.125 562.548 C 648.45 559.589 658.03 558.955 658.198 558.955 Z" fill="#2a201d"/>
  <path d="M 879.531 553.521 C 879.531 553.521 915.95 551.87 919.847 588.373 C 921.889 610.516 869.931 620.596 845.83 618.482 C 846.717 636.527 844.394 641.145 864.91 644.63 C 881.411 646.503 905.102 630.675 908.257 628.154 C 910.556 629.075 909.508 628.658 912.575 630.258 C 909.722 633.067 894.912 641.939 885.929 646.973 C 874.251 653.517 868.975 652.603 851.518 651.409 C 838.011 649.601 813.097 639.788 817.478 606.674 C 819.099 594.426 842.29 552.041 879.531 553.521 Z M 846.33 613.62 C 922.18 608.413 903.879 554.472 877.932 561.958 C 853.567 568.256 846.176 606.114 846.33 613.62 Z" fill="#2a201d"/>
  <path d="M 272.84 711.56 C 276.17 711.06 279.64 711.32 283.00 711.28 C 496.82 711.35 710.73 711.21 924.54 711.35 C 924.54 712.78 924.54 714.21 924.54 715.64 C 922.38 715.67 920.21 715.69 918.04 715.70 C 704.68 715.69 491.33 715.70 277.97 715.69 C 276.04 715.68 274.12 715.63 272.20 715.56 C 272.39 714.23 272.56 712.87 272.84 711.56 Z" fill="#9a371c"/>
  <path d="M 402.32 739.42 C 402.448 723.861 409.579 725.497 419.85 725.56 C 419.94 729.053 419.96 729.015 419.869 731.632 C 412.295 731.56 412.411 735.626 412.362 739.403 C 414.527 739.385 415.244 739.35 417.355 739.33 C 417.285 740.96 417.421 743.706 417.361 745.336 C 414.551 745.466 412.3 744.6 410.57 747.48 C 410.04 752.62 410.37 757.9 410.36 763.06 C 410.29 766.64 410.51 779.25 410.43 782.39 C 407.2 782.41 405.98 782.4 402.75 782.33 C 402.47 770.98 402.9 759.57 402.57 748.23 C 401.75 744.64 399.02 745.56 396.28 745.44 C 396.33 743.44 396.22 741.442 396.28 739.442 C 398.47 739.362 400.12 739.48 402.32 739.42 Z" fill="#9a371c"/>
  <path d="M 554.26 735.28 C 564.091 735.47 568.455 752.773 557.53 757.57 C 556.42 761.2 558.24 763.09 560.35 765.71 C 563.476 759.155 578.544 752.152 581.914 759.728 C 581.34 760.935 580.808 762.153 580.39 763.36 C 575.981 760.378 566.27 764.408 566.22 769.72 C 566.43 770.67 566.64 771.61 566.84 772.55 C 568.808 774.307 571.686 776.497 576.673 772.615 C 575.753 775.735 574.47 779.31 572.54 781.97 C 569.324 784.648 561.07 781.641 558.1 778.2 C 556.42 779.54 548.302 789.104 535.57 779.1 C 525.808 765.054 542.04 760.39 544.67 757.84 C 532.843 739.297 548.417 734.442 554.26 735.28 Z M 543.46 772.33 C 547.123 776.873 553.977 775.683 554.61 772.28 C 553.033 769.337 551.178 766.322 549.26 763.56 C 544.78 761.87 540.64 768.85 543.46 772.33 Z M 546.502 746.875 C 546.842 756.891 558.516 752.006 558.511 746.897 C 557.747 737.432 546.684 737.398 546.502 746.875 Z" fill="#9a371c"/>
  <path d="M 332.546 739.682 C 339.61 733.721 355.976 733.283 356.283 748.392 C 354.681 749.492 353.753 749.898 351.98 751.34 C 347.55 735.49 334.896 749.983 335.343 759.39 C 334.052 772.698 346.6 782.204 355.5 767.5 C 355.802 771.635 355.538 769.576 355.748 773.528 C 352.008 778.643 343.949 785.855 332.581 777.977 C 316.624 759.128 329.789 742.844 332.546 739.682 Z" fill="#9a371c"/>
  <path d="M 386.188 738.421 C 397.041 745.219 401.431 772.683 386.944 781.692 C 384.575 782.524 377.474 785.33 369.93 781.17 C 350.201 765.827 362.962 742.093 367.853 740.001 C 376.612 733.906 378.338 735.742 386.188 738.421 Z M 373.19 772.3 C 377.556 776.375 383.087 774.201 384.008 772.967 C 393.978 765.366 388.847 745.666 383.249 743.697 C 379.021 742.177 375.785 742.502 372.833 744.545 C 368.61 746.722 361.87 761.737 373.19 772.3 Z" fill="#9a371c"/>
  <path d="M 445.72 757.07 C 451.835 726.763 478.369 738.994 476.725 751.109 C 476.572 758.537 464.276 762.246 458.13 764.32 C 455.493 765.336 455.269 767.015 455.751 769.768 C 458.106 778.177 473.46 776.352 476.54 767.66 C 479.211 776.204 469.714 781.943 462.207 781.944 C 443.123 781.947 445.559 761.729 445.72 757.07 Z M 463.13 745.31 C 457.159 745.827 452.63 753.846 455.27 758 C 460.03 756.47 464.74 754.97 469.36 753.07 C 471.212 749.766 469.362 744.978 463.13 745.31 Z" fill="#9a371c"/>
  <path d="M 649.98 739.53 C 656.633 739.01 665.223 742.428 669.775 744.194 C 669.775 744.194 665.81 748.141 664.31 749.73 C 661.444 746.281 650.786 744.185 648.77 747.93 C 646.152 753.54 662.898 761.014 668.21 764.23 C 670.12 765.748 668.82 773.53 668.17 776.78 C 666.178 786.3 638.199 785.612 640.203 766.141 C 641.585 769.874 659.596 785.196 661.45 769.16 C 661.639 765.399 645.454 759.08 642.59 754.92 C 639.452 750.219 643.405 740.044 649.98 739.53 Z" fill="#9a371c"/>
  <path d="M 680.95 739.5 C 685.64 739.39 690.37 739.42 695.06 739.48 C 701.283 739.38 706.546 747.72 706.56 751.99 C 706.571 754.176 708.78 764.754 691.9 773.23 C 689.74 771.47 687.62 769.64 685.47 767.86 C 685.28 772.69 685.36 777.51 685.25 782.34 C 682.03 782.4 678.81 782.4 675.59 782.36 C 675.34 771.91 675.52 746.771 675.55 744.261 C 675.429 742.306 675.608 740.075 680.95 739.5 Z M 685.39 748.99 C 685.17 754.56 685.34 760.17 685.46 765.74 C 687.456 765.788 699.947 767 699.972 752.935 C 699.525 744.642 694.034 743.991 688.91 744.02 C 686.589 744.017 685.063 746.812 685.39 748.99 Z" fill="#9a371c"/>
  <path d="M 711.42 739.72 C 715.68 738.73 719.05 740.06 722.99 741.38 C 726.71 740.33 729.60 738.54 733.68 739.78 C 735.16 740.94 736.47 742.36 737.79 743.70 C 736.40 746.21 735.07 748.74 733.93 751.37 C 732.91 751.44 731.89 751.51 730.87 751.58 C 730.24 749.77 729.60 747.97 728.96 746.17 C 725.66 746.80 722.81 747.18 720.82 750.21 C 720.26 754.74 720.70 759.43 720.59 764.00 C 720.78 770.56 719.51 776.35 722.78 782.40 C 719.89 782.41 717.01 782.41 714.12 782.40 C 712.86 778.85 711.02 775.99 711.26 772.07 C 711.42 761.30 711.07 750.48 711.42 739.72 Z" fill="#9a371c"/>
  <path d="M 272.59 801.25 C 274.03 801.29 275.47 801.32 276.91 801.33 C 492.76 801.38 708.64 801.29 924.49 801.38 C 924.50 802.81 924.51 804.24 924.51 805.67 C 714.02 805.77 503.49 805.68 293.00 805.71 C 286.14 805.75 279.27 805.59 272.42 805.84 C 272.47 804.31 272.50 802.78 272.59 801.25 Z" fill="#9a371c"/>
  <path d="M 503.499 367.449 C 522.139 370.828 524.784 383.771 525.03 388.879 C 525.895 406.842 504.185 406.306 504.787 405.121 C 514.977 385.053 501.552 374.024 489.168 373.968 C 482.208 373.937 448.744 374 446.81 414.409 C 446.016 418.901 449.072 450.855 469.91 452.65 C 474.175 453.017 480.038 457.125 512.01 436.02 C 514.64 436.02 514.038 436.09 517.274 436.089 C 513.443 445.989 495.548 455.12 489.082 458.055 C 483.163 460.742 421.408 478.541 420.21 416.118 C 426.035 381.284 437.298 369.915 470.717 366.03 C 476.567 364.28 495.713 364.77 503.499 367.449 Z" fill="#2a201d"/>
  <path d="M 785.728 509.982 C 797.298 509.962 808.898 509.842 820.448 510.042 C 821.808 512.102 787.668 651.896 786.658 654.826 C 780.283 673.069 792.789 679.382 800.336 680.169 C 805.714 680.172 810.836 680.25 816.348 680.162 C 825.441 680.016 834.573 670.853 830.788 659.682 C 847.87 660.526 847.894 669.573 848.013 672.012 C 847.439 684.795 830.549 687.422 823.315 688.084 C 816.962 688.665 808.83 688.397 802.354 688.265 C 768.522 687.944 770.998 655.172 770.988 652.602 C 771.068 641.902 788.528 514.952 785.728 509.982 Z" fill="#2a201d"/>
  <path d="M 538.515 559.003 C 570.284 551.475 577.825 567.793 582.495 568.733 C 583.475 566.523 586.469 558.111 592.715 559.183 C 599.095 558.763 605.585 559.093 611.995 559.103 C 612.005 563.113 597.212 629.642 598.085 634.063 C 601.195 649.803 614.888 637.536 617.531 633.193 C 619.326 630.525 624.547 618.82 624.547 618.82 C 624.922 618.697 626.049 618.325 626.418 618.153 C 626.599 620.011 618.441 636.43 615.645 639.483 C 615.645 639.483 607.125 650.657 592.705 648.943 C 588.196 647.864 575.898 646.125 575.745 622.373 C 563.119 654.176 540.805 651.631 527.333 649.973 C 485.594 644.836 493.556 607.825 494.077 603.843 C 499.125 565.247 536.115 559.743 538.515 559.003 Z M 516.485 599.193 C 516.335 603.532 512.833 639.483 542.585 644.273 C 552.044 644.901 562.613 639.588 577.478 612.367 C 578.188 609.387 578.955 580.893 578.895 574.513 C 573.505 564.142 563.884 561.578 558.924 561.094 C 555.554 560.424 524.655 561.591 516.485 599.193 Z" style="fill: rgb(42, 32, 29);"/>
  <path d="M 427.491 739.348 C 427.619 723.789 434.75 725.425 445.021 725.488 C 445.111 728.981 445.131 728.943 445.04 731.56 C 437.466 731.488 437.582 735.554 437.533 739.331 C 439.698 739.313 440.415 739.278 442.526 739.258 C 442.456 740.888 442.592 743.634 442.532 745.264 C 439.722 745.394 437.471 744.528 435.741 747.408 C 435.211 752.548 435.541 757.828 435.531 762.988 C 435.461 766.568 435.681 779.178 435.601 782.318 C 432.371 782.338 431.151 782.328 427.921 782.258 C 427.641 770.908 428.071 759.498 427.741 748.158 C 426.921 744.568 424.191 745.488 421.451 745.368 C 421.501 743.368 421.391 741.37 421.451 739.37 C 423.641 739.29 425.291 739.408 427.491 739.348 Z" fill="#9a371c"/>
  <path d="M 481.735 757.176 C 487.85 726.869 514.384 739.1 512.74 751.215 C 512.587 758.643 500.291 762.352 494.145 764.426 C 491.508 765.442 491.284 767.121 491.766 769.874 C 494.121 778.283 509.475 776.458 512.555 767.766 C 515.226 776.31 505.729 782.049 498.222 782.05 C 479.138 782.053 481.574 761.835 481.735 757.176 Z M 499.145 745.416 C 493.174 745.933 488.645 753.952 491.285 758.106 C 496.045 756.576 500.755 755.076 505.375 753.176 C 507.227 749.872 505.377 745.084 499.145 745.416 Z" fill="#9a371c"/>
  <path d="M 605.893 757.908 C 612.008 727.601 638.542 739.832 636.898 751.947 C 636.745 759.375 624.449 763.084 618.303 765.158 C 615.666 766.174 615.442 767.853 615.924 770.606 C 618.279 779.015 633.633 777.19 636.713 768.498 C 639.384 777.042 629.887 782.781 622.38 782.782 C 603.296 782.785 605.732 762.567 605.893 757.908 Z M 623.303 746.148 C 617.332 746.665 612.803 754.684 615.443 758.838 C 620.203 757.308 624.913 755.808 629.533 753.908 C 631.385 750.604 629.535 745.816 623.303 746.148 Z" fill="#9a371c"/>
  <path d="M 869.957 739.507 C 880.81 746.305 885.2 773.769 870.713 782.778 C 868.344 783.61 861.243 786.416 853.699 782.256 C 833.97 766.913 846.731 743.179 851.622 741.087 C 860.381 734.992 862.107 736.828 869.957 739.507 Z M 856.959 773.386 C 861.325 777.461 866.856 775.287 867.777 774.053 C 877.747 766.452 872.616 746.752 867.018 744.783 C 862.79 743.263 859.554 743.588 856.602 745.631 C 852.379 747.808 845.639 762.823 856.959 773.386 Z" fill="#9a371c"/>
  <path d="M 738.226 756.311 C 744.341 726.004 770.875 738.235 769.231 750.35 C 769.078 757.778 756.782 761.487 750.636 763.561 C 747.999 764.577 747.775 766.256 748.257 769.009 C 750.612 777.418 765.966 775.593 769.046 766.901 C 771.717 775.445 762.22 781.184 754.713 781.185 C 735.629 781.188 738.065 760.97 738.226 756.311 Z M 755.636 744.551 C 749.665 745.068 745.136 753.087 747.776 757.241 C 752.536 755.711 757.246 754.211 761.866 752.311 C 763.718 749.007 761.868 744.219 755.636 744.551 Z" fill="#9a371c"/>
  <path d="M 784.072 739.628 C 790.725 739.108 799.315 742.526 803.867 744.292 C 803.867 744.292 799.902 748.239 798.402 749.828 C 795.536 746.379 784.878 744.283 782.862 748.028 C 780.244 753.638 796.99 761.112 802.302 764.328 C 804.212 765.846 802.912 773.628 802.262 776.878 C 800.27 786.398 772.291 785.71 774.295 766.239 C 775.677 769.972 793.688 785.294 795.542 769.258 C 795.731 765.497 779.546 759.178 776.682 755.018 C 773.544 750.317 777.497 740.142 784.072 739.628 Z" fill="#9a371c"/>
  <path d="M 818.134 739.504 C 824.787 738.984 833.377 742.402 837.929 744.168 C 837.929 744.168 833.964 748.115 832.464 749.704 C 829.598 746.255 818.94 744.159 816.924 747.904 C 814.306 753.514 831.052 760.988 836.364 764.204 C 838.274 765.722 836.974 773.504 836.324 776.754 C 834.332 786.274 806.353 785.586 808.357 766.115 C 809.739 769.848 827.75 785.17 829.604 769.134 C 829.793 765.373 813.608 759.054 810.744 754.894 C 807.606 750.193 811.559 740.018 818.134 739.504 Z" fill="#9a371c"/>
</svg>